<svg width="82" height="21" viewBox="0 0 82 21" fill="none" xmlns="http://www.w3.org/2000/svg">
<g id="Lendo">
<path d="M14 20H0.799988V-0.0100098H5.95999V15.5H14V20Z" fill="#0D0F52"/>
<path d="M23.0724 20.36C20.7924 20.36 18.9024 19.67 17.4024 18.29C15.9024 16.89 15.1524 15.04 15.1524 12.74C15.1524 10.6 15.8724 8.79999 17.3124 7.33999C18.7724 5.87999 20.6224 5.14999 22.8624 5.14999C25.0424 5.14999 26.8224 5.88999 28.2024 7.36999C29.5824 8.82999 30.2724 10.78 30.2724 13.22V14.21H19.9524C20.0924 14.93 20.4824 15.54 21.1224 16.04C21.7624 16.54 22.5824 16.79 23.5824 16.79C24.1424 16.79 24.7824 16.68 25.5024 16.46C26.2424 16.22 26.8024 15.92 27.1824 15.56L29.1324 18.44C28.4324 19.06 27.5324 19.54 26.4324 19.88C25.3524 20.2 24.2324 20.36 23.0724 20.36ZM25.8624 11.21C25.7824 10.57 25.5024 9.99999 25.0224 9.49999C24.5424 8.97999 23.8224 8.71999 22.8624 8.71999C21.9624 8.71999 21.2724 8.96999 20.7924 9.46999C20.3124 9.96999 20.0124 10.55 19.8924 11.21H25.8624Z" fill="#0D0F52"/>
<path d="M46.678 20H42.058V11.63C42.058 10.03 41.268 9.22999 39.688 9.22999C38.568 9.22999 37.628 9.69999 36.868 10.64V20H32.248V5.50999H36.868V7.27999C38.088 5.85999 39.758 5.14999 41.878 5.14999C43.478 5.14999 44.678 5.56999 45.478 6.40999C46.278 7.22999 46.678 8.33999 46.678 9.73999V20Z" fill="#0D0F52"/>
<path d="M64.0712 20H59.4812V18.32C58.3012 19.68 56.8712 20.36 55.1912 20.36C53.3312 20.36 51.7912 19.69 50.5712 18.35C49.3712 16.99 48.7712 15.12 48.7712 12.74C48.7712 10.42 49.3712 8.57999 50.5712 7.21999C51.7912 5.83999 53.3312 5.14999 55.1912 5.14999C56.9312 5.14999 58.3612 5.83999 59.4812 7.21999V-0.0100098H64.0712V20ZM56.6912 16.28C57.1912 16.28 57.7012 16.16 58.2212 15.92C58.7612 15.66 59.1812 15.34 59.4812 14.96V10.52C59.1812 10.14 58.7612 9.82999 58.2212 9.58999C57.7012 9.34999 57.1912 9.22999 56.6912 9.22999C55.7512 9.22999 54.9812 9.54999 54.3812 10.19C53.8012 10.83 53.5112 11.68 53.5112 12.74C53.5112 13.8 53.8112 14.66 54.4112 15.32C55.0112 15.96 55.7712 16.28 56.6912 16.28Z" fill="#0D0F52"/>
<path d="M74.0858 20.36C71.7058 20.36 69.7958 19.62 68.3558 18.14C66.9158 16.66 66.1958 14.86 66.1958 12.74C66.1958 10.62 66.9158 8.82999 68.3558 7.36999C69.7958 5.88999 71.7058 5.14999 74.0858 5.14999C76.4858 5.14999 78.4058 5.88999 79.8458 7.36999C81.2858 8.82999 82.0058 10.62 82.0058 12.74C82.0058 14.86 81.2858 16.66 79.8458 18.14C78.4058 19.62 76.4858 20.36 74.0858 20.36ZM71.7758 15.29C72.3358 15.95 73.1058 16.28 74.0858 16.28C75.0658 16.28 75.8358 15.95 76.3958 15.29C76.9758 14.61 77.2658 13.76 77.2658 12.74C77.2658 11.74 76.9758 10.91 76.3958 10.25C75.8358 9.56999 75.0658 9.22999 74.0858 9.22999C73.1058 9.22999 72.3358 9.56999 71.7758 10.25C71.2358 10.91 70.9658 11.74 70.9658 12.74C70.9658 13.76 71.2358 14.61 71.7758 15.29Z" fill="#0D0F52"/>
</g>
</svg>
