<svg width="35" height="44" viewBox="0 0 35 44" fill="none" xmlns="http://www.w3.org/2000/svg">
<g id="Group 14">
<g id="Group 9">
<path id="Vector 4 (Stroke)" fill-rule="evenodd" clip-rule="evenodd" d="M29.6034 1.87909C32.1088 4.38452 32.1087 8.4466 29.6033 10.952L27.0728 13.4825C26.2917 14.2635 26.2917 15.5299 27.0728 16.3109L32.6743 21.9125C35.1797 24.4179 35.1797 28.48 32.6743 30.9854C30.1689 33.4908 26.1068 33.4908 23.6014 30.9854L12.0492 19.4331C10.846 18.2299 10.1701 16.5981 10.1701 14.8966C10.1701 13.1951 10.846 11.5633 12.0492 10.3602L20.5305 1.87903C23.0359 -0.626368 27.098 -0.626338 29.6034 1.87909Z" fill="url(#paint0_radial_549_43)"/>
<path id="Vector 5 (Stroke)" fill-rule="evenodd" clip-rule="evenodd" d="M1.87901 13.0145C4.38439 10.509 8.44643 10.509 10.9518 13.0144L22.5041 24.5667C23.7072 25.7699 24.3832 27.4017 24.3832 29.1033C24.3832 30.8048 23.7072 32.4367 22.504 33.6398L14.0228 42.121C11.5174 44.6264 7.45531 44.6263 4.94996 42.1208C2.44461 39.6153 2.44468 35.5532 4.95011 33.0478L7.48056 30.5174C8.26162 29.7364 8.26162 28.47 7.48057 27.689L1.87907 22.0875C-0.626334 19.582 -0.62636 15.5199 1.87901 13.0145Z" fill="#4BDFFF"/>
<path id="Intersect" fill-rule="evenodd" clip-rule="evenodd" d="M23.9822 31.3368C23.8519 31.2257 23.7249 31.1085 23.6017 30.9853L12.0494 19.433C10.8463 18.2298 10.1703 16.598 10.1703 14.8965C10.1704 14.1267 10.3087 13.3711 10.5717 12.663C10.7021 12.7741 10.829 12.8912 10.9522 13.0144L22.5045 24.5668C23.7076 25.7699 24.3836 27.4018 24.3836 29.1033C24.3836 29.8731 24.2452 30.6287 23.9822 31.3368Z" fill="#2D91FE"/>
</g>
</g>
<defs>
<radialGradient id="paint0_radial_549_43" cx="0" cy="0" r="1" gradientUnits="userSpaceOnUse" gradientTransform="translate(24.6811 26.1619) rotate(-84.6107) scale(26.2781 164.553)">
<stop stop-color="#2DADFE"/>
<stop offset="1" stop-color="#2D91FE"/>
</radialGradient>
</defs>
</svg>
