<svg width="175" height="146" viewBox="0 0 175 146" fill="none" xmlns="http://www.w3.org/2000/svg">
<g id="Frame" clip-path="url(#clip0_1_238)">
<g id="Group">
<mask id="mask0_1_238" style="mask-type:alpha" maskUnits="userSpaceOnUse" x="14" y="31" width="146" height="114">
<g id="b 1">
<g id="Group_2">
<path id="a 1" d="M14.83 31.13H159.93V144.53H14.83V31.13Z" fill="white"/>
</g>
</g>
</mask>
<g mask="url(#mask0_1_238)">
<path id="Vector" d="M139.832 144.529C157.432 124.929 162.732 108.129 158.532 101.329C153.232 92.7293 149.032 96.2293 141.332 90.8293C124.532 79.1293 141.232 67.8293 135.332 62.0293C124.432 51.0293 113.132 79.9293 100.332 70.0293C91.4316 63.1293 102.232 53.8293 100.332 43.7293C96.6316 23.3293 70.9316 30.9293 63.1316 43.7293C55.2316 56.6293 52.0316 74.9293 29.3316 76.9293C16.2316 78.1293 3.5316 98.5293 31.6316 110.329C44.4316 115.729 17.6316 128.429 30.6316 144.529H139.832Z" fill="#EFF1FE"/>
</g>
</g>
<g id="Group_3">
<path id="Fill 91 1" d="M114.15 79.95C113.55 82.65 112.55 85.25 111.75 87.95C110.95 90.65 110.15 93.45 110.15 96.35C110.15 100.05 111.65 103.75 114.15 106.45C115.15 107.55 116.35 108.45 117.05 109.65C117.85 110.85 118.15 112.55 117.25 113.75C116.05 115.45 113.35 115.05 111.55 116.15C109.25 117.45 108.95 120.85 110.25 123.15C111.55 125.45 117.45 132.05 125.95 130.35C129.75 129.65 134.85 126.05 134.75 122.15C134.55 118.15 130.75 114.95 130.85 110.85C130.95 108.25 132.75 106.05 134.25 103.85C135.75 101.75 137.25 99.15 136.55 96.55C135.55 92.85 130.65 91.65 128.35 88.55C126.85 86.55 126.55 83.95 126.45 81.45C126.35 78.95 126.45 76.45 125.55 74.05C123.65 68.55 116.55 69.25 114.15 79.95Z" fill="#9FA8ED"/>
<path id="Fill 92 1" d="M122.951 137.451H123.351V94.2508H122.951V137.451Z" fill="#7880EF"/>
<path id="Fill 93 1" d="M123.25 106.75L122.85 106.65C123.45 102.75 127.95 100.35 128.15 100.25L128.35 100.55C128.35 100.65 123.95 103.05 123.25 106.75Z" fill="#7880EF"/>
<path id="Fill 94 1" d="M122.95 123.75C122.55 121.15 119.35 119.35 119.35 119.35L119.55 119.05C119.65 119.15 122.95 120.85 123.35 123.75H122.95Z" fill="#7880EF"/>
<path id="Fill 95 1" d="M125.351 145.05H120.851C118.151 145.05 115.951 142.85 115.951 140.15V135.95H130.351V140.05C130.251 142.85 128.051 145.05 125.351 145.05Z" fill="#9FA8ED"/>
<path id="Fill 96 1" d="M115.85 137.65H130.25V137.25H115.85V137.65Z" fill="white"/>
</g>
<path id="Vector_2" d="M156.548 64.9504L152.448 69.1504L148.248 64.9504L152.348 60.8504L156.548 64.9504Z" stroke="#9FA8ED" stroke-miterlimit="10"/>
<g id="Group_4">
<path id="Vector_3" d="M99.35 0.949997V2.75" stroke="#9FA8ED" stroke-miterlimit="10"/>
<path id="Vector_4" d="M99.35 7.14999V8.94999" stroke="#9FA8ED" stroke-miterlimit="10"/>
<path id="Vector_5" d="M103.35 4.95H101.55" stroke="#9FA8ED" stroke-miterlimit="10"/>
<path id="Vector_6" d="M97.15 4.95H95.35" stroke="#9FA8ED" stroke-miterlimit="10"/>
</g>
<path id="Vector_7" d="M44.4515 5.25078L46.9515 14.6508L53.8515 7.75078L44.4515 5.25078Z" stroke="#9FA8ED" stroke-miterlimit="10"/>
<path id="Vector_8" d="M1.95154 60.6504L2.05154 55.7504L6.95154 55.6504V50.8504L11.8515 50.7504L11.9515 45.8504" stroke="#9FA8ED" stroke-miterlimit="10"/>
<path id="Vector_9" d="M3.04999 105.45C4.15456 105.45 5.04999 104.555 5.04999 103.45C5.04999 102.345 4.15456 101.45 3.04999 101.45C1.94542 101.45 1.04999 102.345 1.04999 103.45C1.04999 104.555 1.94542 105.45 3.04999 105.45Z" stroke="#9FA8ED" stroke-miterlimit="10"/>
<path id="Vector_10" d="M47.8511 27.0494C43.8511 24.6494 33.7511 28.3494 29.2511 33.7494C22.9511 41.2494 27.8511 53.3494 33.5511 54.3494C40.2511 55.5494 50.7511 42.1494 50.1511 31.8494C50.0511 29.8494 49.2511 27.8494 47.8511 27.0494Z" fill="#EFF1FE"/>
<g id="Group_5">
<g id="Group_6">
<path id="Vector_11" d="M60.9484 80.3493L53.5484 140.849C53.5484 141.049 53.5484 141.149 53.5484 141.349H58.6484L68.8484 80.3493H60.9484Z" fill="#FFC7BD"/>
<path id="Vector_12" d="M82.6468 80.3493H74.2468L73.9468 102.149L76.1468 141.249V141.349H81.3468L81.0468 102.349L82.6468 80.3493Z" fill="#FFC7BD"/>
</g>
<path id="Vector_13" d="M75.5484 141.95V144.35H83.8484C84.2484 144.35 84.6484 144.05 84.6484 143.55C84.6484 143.25 84.4484 143.05 84.2484 142.85L81.2484 141.25H76.1484C75.8484 141.25 75.5484 141.55 75.5484 141.95Z" fill="#40327A"/>
<path id="Vector_14" d="M57.9484 141.25H53.4484L50.4484 142.85C50.2484 142.95 50.0484 143.25 50.0484 143.55C50.0484 143.95 50.3484 144.35 50.8484 144.35H59.1484V142.15C59.1484 141.65 58.7484 141.25 58.2484 141.25C58.1484 141.25 57.9484 141.35 57.9484 141.25Z" fill="#40327A"/>
<path id="Vector_15" d="M66.15 36.75L67.65 23.65L83.15 22.35L79.95 37.95L66.15 36.75Z" fill="#9FA8ED"/>
<path id="Vector_16" d="M78.4697 25.3102L70.8993 24.6419L69.8354 36.6947L77.4057 37.363L78.4697 25.3102Z" fill="#FFC7BD"/>
<path id="Vector_17" d="M83.0484 20.8509C83.0484 20.2509 82.8484 19.6509 82.6484 19.1509L77.5484 19.3509C76.1484 19.3509 74.9484 18.8509 74.0484 17.9509L74.2484 24.6509C74.2484 25.6509 75.1484 26.4509 76.1484 26.4509L83.4484 26.1509L83.1484 22.3509L83.0484 20.8509Z" fill="#FFC7BD"/>
<path id="Vector_18" d="M77.55 15.65H75.35C74.15 15.65 73.15 16.45 72.75 17.45V17.55V17.65L70.85 22.65C69.95 22.75 69.25 23.55 69.35 24.45C69.45 25.35 70.25 26.05 71.15 25.95L72.85 27.65V29.35C72.95 32.25 75.35 34.45 78.25 34.25L82.05 33.95C83.25 33.85 84.15 32.75 84.05 31.55L83.15 20.35C82.75 17.35 80.35 15.55 77.55 15.65Z" fill="#FFC7BD"/>
<path id="Vector_19" d="M70.7499 22.65C71.7499 22.65 72.4499 23.35 72.5499 24.25V24.75L72.7499 29.95C72.8499 32.45 74.9499 34.35 77.3499 34.25H78.0499L81.7499 34.15C83.0499 34.15 84.0499 33.05 83.8499 31.75L83.6499 29.55V29.05L83.4499 26.35L76.1499 26.65C75.1499 26.65 74.2499 25.85 74.2499 24.85L74.4499 18.15C74.4499 17.65 70.5499 16.35 70.6499 19.45C70.6499 19.25 69.8499 22.65 70.7499 22.65Z" fill="url(#paint0_linear_1_238)"/>
<path id="Vector_20" d="M83.15 21.45C83.15 21.05 83.0499 20.65 82.9499 20.25C82.8499 19.85 82.8499 19.55 82.7499 19.15C82.7499 19.05 82.75 19.05 82.65 18.95C82.55 18.85 82.35 18.85 82.15 18.85C81.95 18.85 81.75 18.85 81.65 18.85C81.35 18.85 81.0499 18.85 80.7499 18.85C80.1499 18.85 79.5499 18.85 78.9499 18.85C77.8499 18.85 76.75 18.95 75.65 19.05C75.25 19.05 74.7499 19.15 74.4499 19.35C73.8499 19.85 73.6499 20.85 73.4499 21.45C73.4499 21.55 73.25 22.05 73.15 22.45C70.55 22.65 68.35 20.65 68.15 18.15V17.85C68.15 17.75 68.15 17.65 68.15 17.65C68.05 15.15 69.9499 13.05 72.4499 12.85L73.2499 12.75L80.0499 12.25H80.4499C82.6499 12.05 84.65 13.55 85.25 15.55C85.35 15.85 85.4499 16.15 85.4499 16.55V16.85C85.6499 18.85 84.65 20.55 83.15 21.45Z" fill="#E4ECFF"/>
<path id="Vector_21" d="M89.7499 64.25C87.7499 65.25 85.3499 64.65 84.1499 62.75L75.4499 48.55C74.6499 47.25 74.5499 45.55 75.3499 44.25L78.0499 39.25C78.9499 37.85 80.6499 37.25 82.2499 37.75C83.3499 38.15 84.2499 39.05 84.6499 40.15L91.6499 59.15C92.4499 61.05 91.5499 63.25 89.7499 64.25Z" fill="#9FA8ED"/>
<path id="Vector_22" d="M82.8513 75.0505L85.4513 41.9505C85.6513 39.5505 83.7513 37.4505 81.2513 37.3505L63.6513 37.0505C61.0513 37.0505 58.9513 39.1505 59.0513 41.7505L60.9513 74.4505H60.8513L53.2513 138.55C53.1513 139.05 53.5513 139.45 54.0513 139.45L70.1513 138.25L83.8513 139.85C84.8513 139.95 85.7513 139.15 85.6513 138.15L82.8513 75.0505Z" fill="#9FA8ED"/>
<path id="Vector_23" opacity="0.3" d="M62.95 138.75L64.35 121.45L64.5499 138.55L62.95 138.75Z" fill="#1B3294"/>
<path id="Vector_24" opacity="0.3" d="M63.8515 121.95L55.2515 121.75L54.7515 126.45L63.8515 121.95Z" fill="#1B3294"/>
<path id="Vector_25" opacity="0.3" d="M73.05 138.25L70.65 109.05L70.35 138.05L73.05 138.25Z" fill="#1B3294"/>
<path id="Vector_26" d="M75.95 19.05C75.55 19.05 74.95 19.35 74.55 19.55C73.95 20.05 73.75 21.05 73.55 21.75C73.55 21.85 73.35 22.35 73.25 22.75L69.55 45.85C69.45 46.45 68.65 46.45 68.45 45.95L66.95 41.45L63.35 36.55L68.15 18.85C68.15 18.55 68.15 18.25 68.15 17.95C68.55 14.95 78.15 18.75 75.95 19.05Z" fill="#E4ECFF"/>
<path id="Vector_27" d="M85.35 17.45L68.45 18.35C68.15 18.35 67.95 18.15 67.95 17.85C67.95 17.55 68.15 17.35 68.45 17.35L85.35 16.45C85.65 16.45 85.85 16.65 85.85 16.95C85.85 17.25 85.65 17.45 85.35 17.45Z" fill="url(#paint1_linear_1_238)"/>
<path id="Vector_28" d="M86.3515 89.7505C86.2515 89.2505 86.3515 88.8505 86.4515 88.4505L88.6515 84.7505L88.5515 85.2505L88.7515 84.0505L91.5515 83.5505V85.1505C91.5515 85.2505 91.5515 85.2505 91.5515 85.2505L91.1515 89.5505C91.0515 90.6505 90.2515 91.5505 89.1515 91.7505C87.8515 91.9505 86.5515 91.0505 86.3515 89.7505Z" fill="#FFC7BD"/>
<path id="Vector_29" d="M91.65 84.85L91.75 83.35L88.65 83.25V84.85H91.65Z" fill="white"/>
<path id="Vector_30" d="M91.7499 83.55L88.5499 83.75L84.2499 63.15C83.7499 60.85 85.2499 58.55 87.6499 58.15C90.1499 57.75 92.4499 59.65 92.5499 62.25L91.7499 83.55Z" fill="#9FA8ED"/>
<path id="Vector_31" d="M80.5405 29.8384C80.815 29.8081 80.9982 29.4275 80.9496 28.9883C80.9011 28.5491 80.6393 28.2177 80.3648 28.248C80.0903 28.2783 79.9071 28.6589 79.9556 29.0981C80.0042 29.5373 80.266 29.8687 80.5405 29.8384Z" fill="white"/>
<path id="Vector_32" opacity="0.3" d="M67.85 48.45L59.35 50.35L60.55 71.25L67.85 48.45Z" fill="#1B3294"/>
<g id="Group_7">
<path id="Vector_33" d="M68.65 121.85H39.45C36.85 121.85 34.65 119.75 34.65 117.05V98.45C34.65 95.85 36.75 93.65 39.45 93.65H68.65C71.25 93.65 73.45 95.75 73.45 98.45V116.95C73.45 119.65 71.25 121.85 68.65 121.85Z" fill="url(#paint2_linear_1_238)"/>
<g id="Group_8">
<path id="Vector_34" d="M59.6484 94.55H57.8484V92.65C57.8484 91.85 57.1484 91.15 56.3484 91.15H51.8484C51.0484 91.15 50.3484 91.85 50.3484 92.65V94.45H48.5484V92.65C48.5484 90.85 50.0484 89.35 51.8484 89.35H56.3484C58.1484 89.35 59.6484 90.85 59.6484 92.65V94.55Z" fill="url(#paint3_linear_1_238)"/>
</g>
<path id="Vector_35" d="M69.3515 108.15H38.8515C36.5515 108.15 34.7515 106.35 34.7515 104.05V97.8504C34.7515 95.5504 36.5515 93.7504 38.8515 93.7504H69.3515C71.6515 93.7504 73.4515 95.5504 73.4515 97.8504V104.05C73.4515 106.35 71.6515 108.15 69.3515 108.15Z" fill="url(#paint4_linear_1_238)"/>
<path id="Vector_36" d="M54.65 110.15H53.45C52.65 110.15 51.95 109.45 51.95 108.65V107.45C51.95 106.65 52.65 105.95 53.45 105.95H54.65C55.45 105.95 56.15 106.65 56.15 107.45V108.65C56.15 109.45 55.55 110.15 54.65 110.15Z" fill="url(#paint5_linear_1_238)"/>
</g>
<path id="Vector_37" d="M56.25 91.15C56.45 90.75 56.45 90.25 56.45 89.75L55.05 85.65V86.15L55.15 84.95L52.55 83.85L52.15 85.45V85.55L51.55 89.85C51.45 90.95 51.95 91.95 52.95 92.45C54.25 92.95 55.75 92.35 56.25 91.15Z" fill="#FFC7BD"/>
<path id="Vector_38" d="M55.45 85.35L55.75 83.55L51.95 83.65L52.05 85.45L55.45 85.35Z" fill="white"/>
<path id="Vector_39" d="M53.1512 64.451C55.0512 65.551 57.5512 64.851 58.6512 63.051L67.5512 48.951C68.3512 47.651 68.4512 45.951 67.7512 44.651L65.1512 39.651C64.3512 38.251 62.5512 37.551 60.9512 38.151C59.8512 38.551 58.9512 39.351 58.5512 40.451L51.2512 59.351C50.4512 61.251 51.2512 63.451 53.1512 64.451Z" fill="#9FA8ED"/>
<path id="Vector_40" d="M51.6517 83.8502L56.0517 83.6502L58.8517 62.8502C59.1517 60.4502 57.4517 58.3502 55.1517 58.1502C52.6517 57.9502 50.4517 59.9502 50.5517 62.5502L51.6517 83.8502Z" fill="#9FA8ED"/>
</g>
<path id="Vector_41" d="M0.349976 145.05H174.65V144.35H0.349976V145.05Z" fill="#EEF3FF"/>
<path id="Vector_42" d="M134.15 24.15H112.55V44.25H134.15V24.15Z" fill="white" stroke="#C7CDF9" stroke-miterlimit="10"/>
<path id="Vector_43" d="M119.248 34.0496L122.348 37.0496L128.348 31.0496" stroke="#FF809F" stroke-width="2" stroke-miterlimit="10" stroke-linecap="round" stroke-linejoin="round"/>
</g>
<defs>
<linearGradient id="paint0_linear_1_238" x1="84.4951" y1="25.5943" x2="72.7451" y2="25.7609" gradientUnits="userSpaceOnUse">
<stop stop-color="#5E59A6"/>
<stop offset="1" stop-color="#40327A"/>
</linearGradient>
<linearGradient id="paint1_linear_1_238" x1="85.7137" y1="16.9235" x2="67.8065" y2="17.9229" gradientUnits="userSpaceOnUse">
<stop stop-color="#5E59A6"/>
<stop offset="1" stop-color="#40327A"/>
</linearGradient>
<linearGradient id="paint2_linear_1_238" x1="54.0686" y1="94.4838" x2="54.0686" y2="120.895" gradientUnits="userSpaceOnUse">
<stop stop-color="#5E59A6"/>
<stop offset="1" stop-color="#40327A"/>
</linearGradient>
<linearGradient id="paint3_linear_1_238" x1="59.8731" y1="90.1774" x2="48.7064" y2="94.5524" gradientUnits="userSpaceOnUse">
<stop stop-color="#7C7CB5"/>
<stop offset="1" stop-color="#5E59A6"/>
</linearGradient>
<linearGradient id="paint4_linear_1_238" x1="54.0701" y1="94.5467" x2="54.0701" y2="107.672" gradientUnits="userSpaceOnUse">
<stop stop-color="#7C7CB5"/>
<stop offset="1" stop-color="#5E59A6"/>
</linearGradient>
<linearGradient id="paint5_linear_1_238" x1="55.8817" y1="106.324" x2="52.3817" y2="109.615" gradientUnits="userSpaceOnUse">
<stop stop-color="#7C7CB5"/>
<stop offset="1" stop-color="#5E59A6"/>
</linearGradient>
<clipPath id="clip0_1_238">
<rect width="174.3" height="144.1" fill="white" transform="translate(0.349976 0.949997)"/>
</clipPath>
</defs>
</svg>
